<svg width="22" height="24" viewBox="0 0 22 24" fill="none" xmlns="http://www.w3.org/2000/svg">
<path d="M11.1973 3.18864L11 3.01648L10.8027 3.18864L2.24718 10.6553L2.14444 10.745V10.8813V21.3333V21.6333H2.44444H8.55556H8.85556V21.3333V16.3H13.1444V21.3333V21.6333H13.4444H19.5556H19.8556V21.3333V11.5228C19.8556 11.5227 19.8556 11.5227 19.8556 11.5227C19.8556 11.2818 19.8061 11.0431 19.7097 10.8242C19.6133 10.6052 19.472 10.4104 19.2946 10.2554L19.2945 10.2553L11.1973 3.18864ZM20.4265 8.62602L20.4265 8.62604C20.8213 8.97056 21.142 9.40921 21.3631 9.91077C21.5843 10.4124 21.6997 10.9629 21.7 11.5215V21.3333C21.7 21.969 21.4683 22.574 21.0629 23.0162C20.6583 23.4576 20.1155 23.7 19.5556 23.7H2.44444C1.88454 23.7 1.34169 23.4576 0.937107 23.0162C0.531726 22.574 0.3 21.969 0.3 21.3333V10.8814C0.3 10.8814 0.3 10.8813 0.3 10.8813C0.300046 10.5226 0.374045 10.1693 0.51567 9.84773C0.657264 9.52624 0.862307 9.24582 1.11393 9.02603C1.11396 9.026 1.11399 9.02598 1.11402 9.02595L11 0.398192L20.4265 8.62602Z"/>
</svg>
