<svg width="22" height="25" viewBox="0 0 22 25" fill="none" xmlns="http://www.w3.org/2000/svg">
<path d="M21.749 20.0391C21.0371 19.3779 20.4138 18.6199 19.896 17.7856C19.3306 16.6339 18.9918 15.3761 18.8993 14.0862V10.2868C18.9042 8.26067 18.1987 6.30242 16.9154 4.77997C15.6322 3.25753 13.8594 2.27568 11.9302 2.0189V1.02676C11.9302 0.754444 11.8264 0.493284 11.6415 0.30073C11.4567 0.108176 11.206 0 10.9446 0C10.6832 0 10.4326 0.108176 10.2477 0.30073C10.0629 0.493284 9.95906 0.754444 9.95906 1.02676V2.03428C8.04717 2.30957 6.29582 3.29735 5.02938 4.81468C3.76295 6.33202 3.06725 8.27607 3.07114 10.2868V14.0862C2.97868 15.3761 2.63984 16.6339 2.0745 17.7856C1.56575 18.618 0.952493 19.3759 0.251007 20.0391C0.172258 20.1111 0.109145 20.1998 0.0658652 20.2993C0.0225858 20.3988 0.000132735 20.5067 0 20.6159V21.6619C0 21.8658 0.0777802 22.0615 0.21623 22.2057C0.35468 22.3499 0.542458 22.431 0.738255 22.431H21.2617C21.4575 22.431 21.6453 22.3499 21.7838 22.2057C21.9222 22.0615 22 21.8658 22 21.6619V20.6159C21.9999 20.5067 21.9774 20.3988 21.9341 20.2993C21.8909 20.1998 21.8277 20.1111 21.749 20.0391ZM1.53557 20.8928C2.22245 20.2015 2.82722 19.4268 3.33691 18.5854C4.04904 17.1945 4.46455 15.6598 4.55503 14.0862V10.2868C4.52575 9.38543 4.67088 8.48714 4.98178 7.64543C5.29267 6.80371 5.76297 6.03578 6.36468 5.38736C6.96638 4.73894 7.68718 4.22329 8.48416 3.87112C9.28114 3.51895 10.138 3.33746 11.0037 3.33746C11.8694 3.33746 12.7262 3.51895 13.5232 3.87112C14.3202 4.22329 15.041 4.73894 15.6427 5.38736C16.2444 6.03578 16.7147 6.80371 17.0256 7.64543C17.3365 8.48714 17.4816 9.38543 17.4523 10.2868V14.0862C17.5428 15.6598 17.9583 17.1945 18.6705 18.5854C19.1802 19.4268 19.7849 20.2015 20.4718 20.8928H1.53557Z"/>
<path d="M11.0369 24.9998C11.502 24.9886 11.9482 24.8065 12.2968 24.4856C12.6454 24.1647 12.8738 23.7257 12.9416 23.2462H9.05839C9.12813 23.7387 9.36722 24.188 9.73116 24.5106C10.0951 24.8331 10.5591 25.007 11.0369 24.9998Z"/>
</svg>
