<svg width="25" height="24" viewBox="0 0 25 24" fill="none" xmlns="http://www.w3.org/2000/svg">
<path fill-rule="evenodd" clip-rule="evenodd" d="M20.28 9.75C20.28 4.36522 15.7402 0 10.14 0C4.53983 0 0 4.36522 0 9.75C0 15.1348 4.53983 19.5 10.14 19.5C12.6595 19.5 14.9644 18.6164 16.7378 17.154L22.967 23.1443L23.0545 23.2169C23.3598 23.4348 23.7931 23.4106 24.0701 23.1443C24.3747 22.8514 24.3747 22.3765 24.0701 22.0836L17.8401 16.094C19.3611 14.3888 20.28 12.1726 20.28 9.75ZM1.55999 9.75C1.55999 5.19365 5.40139 1.5 10.14 1.5C14.8786 1.5 18.72 5.19365 18.72 9.75C18.72 14.3063 14.8786 18 10.14 18C5.40139 18 1.55999 14.3063 1.55999 9.75Z"/>
</svg>
